<?xml version="1.0" encoding="utf-8"?>
<!-- Generator: Adobe Illustrator 16.2.1, SVG Export Plug-In . SVG Version: 6.00 Build 0)  -->
<!DOCTYPE svg PUBLIC "-//W3C//DTD SVG 1.1//EN" "http://www.w3.org/Graphics/SVG/1.1/DTD/svg11.dtd">
<svg version="1.1" id="Layer_1" xmlns="http://www.w3.org/2000/svg" xmlns:xlink="http://www.w3.org/1999/xlink" x="0px" y="0px"
	 width="83.095px" height="82.281px" viewBox="0 0 83.095 82.281" enable-background="new 0 0 83.095 82.281" xml:space="preserve">
<g>
	<g>
		<path fill="#FFFFFF" d="M41.764-0.379c-22.826,0-41.329,18.505-41.329,41.329c0,22.826,18.503,41.331,41.329,41.331
			c22.825,0,41.331-18.505,41.331-41.331C83.095,18.126,64.589-0.379,41.764-0.379z M35.967,9.505l6.914,34.374l-9.061,1.864
			l-1.039-6.629l-10.804,2.498l-2.998,7.198l-7.938,1.772l16.811-38.435L35.967,9.505z M14.107,16.761
			c-6.412,8.776-8.865,20.537-5.676,32.229c1.926,7.057,5.652,13.146,10.512,17.868C11.71,60.969,6.807,52.458,5.91,42.656
			C5.023,32.981,8.207,23.831,14.107,16.761z M4.808,55.278C0.064,42.887,1.681,30.045,8.207,21.36
			c-7.289,11.975-6.158,30.643,5.139,44.117c6.103,7.277,13.788,12.75,21.103,14.066C22.527,77.54,10.154,69.246,4.808,55.278z
			 M66.012,56.275c0,0-0.104,10.829-10.051,13.061c-9.942,2.229-18.399,2.229-18.399,2.229l-2.091-13.729l8.637-1.453
			c0,0,0.435,0.179,0.943,2.513c0.504,2.338,0.861,2.726,0.942,2.763c0.085,0.035,0.264,0.059,0.449,0.059
			c0.188,0,5.911-0.943,5.911-0.943s2.147-0.604,2.652-3.268c0.508-2.666,2.173-24.102,2.173-24.102l-14.122,3.314l-1.498-6.673
			l26.646-6.717L66.012,56.275z M45.785,4.179c17.628,3.023,31.078,18.263,31.334,36.693c-0.34-4.16-1.325-8.373-3.01-12.482
			C68.802,15.444,57.855,6.669,45.785,4.179z M78.963,34.179C76.111,19.435,66.071,8.081,53.684,3.696
			c15.741,4.287,27.478,18.498,27.884,35.64c0.197,8.213-2.239,15.876-6.537,22.186C79.241,53.624,80.863,44.004,78.963,34.179z"/>
		<polygon fill="#FFFFFF" points="30.21,21.206 24.995,34.206 31.815,32.555 		"/>
	</g>
</g>
</svg>
