<?xml version="1.0" encoding="utf-8"?>
<!-- Generator: Adobe Illustrator 16.2.1, SVG Export Plug-In . SVG Version: 6.00 Build 0)  -->
<!DOCTYPE svg PUBLIC "-//W3C//DTD SVG 1.1//EN" "http://www.w3.org/Graphics/SVG/1.1/DTD/svg11.dtd">
<svg version="1.1" id="Layer_1" xmlns="http://www.w3.org/2000/svg" xmlns:xlink="http://www.w3.org/1999/xlink" x="0px" y="0px"
	 width="83.095px" height="82.281px" viewBox="0 0 83.095 82.281" enable-background="new 0 0 83.095 82.281" xml:space="preserve">
<g id="_x34_v8MHE.tif_2_">
	<g>
		<path fill="#28268D" d="M80.243,39.639c0,1.001,0,2.001,0,3.002c-0.252,1.52-0.522,3.036-0.755,4.557
			c-2.386,15.522-14.532,28.265-29.936,31.37c-2.101,0.425-4.224,0.736-6.336,1.102c-1.112,0-2.223,0-3.336,0
			c-1.458-0.25-2.915-0.512-4.377-0.745C19.553,76.355,7.26,64.664,3.91,48.832c-0.432-2.047-0.708-4.125-1.058-6.191
			c0-1,0-2.001,0-3.002c0.254-1.52,0.521-3.037,0.755-4.555C5.99,19.563,18.141,6.812,33.542,3.712
			c2.103-0.421,4.224-0.736,6.337-1.1c1.114,0,2.224,0,3.336,0c1.46,0.249,2.915,0.51,4.378,0.745
			c15.947,2.568,28.238,14.257,31.59,30.092C79.616,35.495,79.893,37.576,80.243,39.639z M55.429,56.122
			c2.558,0,4.941,0.052,7.316-0.061c0.337-0.018,0.908-0.853,0.912-1.316c0.059-5.665,0.202-11.338-0.011-16.997
			c-0.266-7.125-5.841-10.924-11.076-10.635c-2.857,0.157-5.176,1.34-7.449,3.115c-0.045-0.386-0.118-0.599-0.083-0.799
			c0.252-1.579-0.474-2.042-1.965-1.942c-1.603,0.104-3.223,0.071-4.832,0.011c-1.171-0.047-1.54,0.44-1.524,1.575
			c0.05,3.666,0.018,7.334,0.018,10.998c0,4.835-0.023,9.666,0.033,14.499c0.007,0.519,0.459,1.46,0.742,1.472
			c2.466,0.119,4.938,0.07,7.362,0.07c0.08-0.447,0.134-0.607,0.136-0.769c0.01-4.777-0.023-9.555,0.049-14.334
			c0.014-1.199,0.196-2.443,0.56-3.585c0.729-2.292,3.317-3.89,5.582-3.63c2.417,0.278,3.829,1.817,3.917,4.763
			c0.15,4.997,0.101,9.995,0.151,14.993C55.275,54.364,55.368,55.171,55.429,56.122z M29.377,56.125
			c0.151-0.303,0.242-0.398,0.242-0.494c0.024-8.987,0.056-17.973,0.009-26.958c-0.003-0.387-0.741-1.074-1.167-1.102
			c-1.934-0.12-3.879-0.035-5.82-0.059c-0.937-0.012-1.257,0.413-1.255,1.316c0.016,8.71,0.017,17.421,0,26.131
			c0,0.842,0.287,1.192,1.157,1.18C24.815,56.103,27.086,56.125,29.377,56.125z M30.352,20.937c-0.003-2.828-1.98-4.794-4.812-4.79
			c-2.802,0.005-4.819,2.022-4.816,4.817c0.005,2.779,2.05,4.807,4.844,4.804C28.373,25.763,30.355,23.761,30.352,20.937z"/>
	</g>
</g>
</svg>
