<?xml version="1.0" encoding="utf-8"?>
<!-- Generator: Adobe Illustrator 16.2.1, SVG Export Plug-In . SVG Version: 6.00 Build 0)  -->
<!DOCTYPE svg PUBLIC "-//W3C//DTD SVG 1.1//EN" "http://www.w3.org/Graphics/SVG/1.1/DTD/svg11.dtd">
<svg version="1.1" id="Layer_1" xmlns="http://www.w3.org/2000/svg" xmlns:xlink="http://www.w3.org/1999/xlink" x="0px" y="0px"
	 width="83.095px" height="82.281px" viewBox="0 0 83.095 82.281" enable-background="new 0 0 83.095 82.281" xml:space="preserve">
<g id="nH2kTy.tif">
	<g>
		<path fill="#28268D" d="M38.688,1.352c1.865,0,3.731,0,5.595,0c0.865,0.136,1.73,0.261,2.589,0.41
			c16.546,2.9,27.537,12.276,32.717,28.278c0.867,2.669,1.14,5.532,1.687,8.303c0,2.073,0,4.146,0,6.218
			c-0.112,0.447-0.276,0.89-0.327,1.344c-1.735,15.619-13.105,29.091-28.323,33.385c-2.717,0.769-5.559,1.106-8.342,1.641
			c-1.864,0-3.729,0-5.595,0c-1.629-0.266-3.266-0.474-4.883-0.807C13.449,75.948,0.016,57.729,2.017,37.038
			C3.561,21.078,14.873,7.439,30.354,3.03C33.07,2.256,35.906,1.898,38.688,1.352z M41.497,21.786c-5.28,0-10.562-0.008-15.84,0.003
			c-3.981,0.007-6.629,2.637-6.631,6.584c-0.007,8.491-0.007,16.98-0.001,25.469c0.003,4.005,2.587,6.622,6.581,6.626
			c10.56,0.012,21.122,0.011,31.68,0.002c3.988-0.006,6.634-2.639,6.638-6.588c0.007-8.493,0.007-16.98,0-25.469
			c-0.004-4.001-2.6-6.617-6.586-6.624C52.057,21.777,46.779,21.786,41.497,21.786z"/>
		<path fill-rule="evenodd" clip-rule="evenodd" fill="#28268D" d="M41.613,24.725c-4.973,0-9.951-0.095-14.917,0.068
			c-1.222,0.038-2.538,0.724-3.588,1.435c-1.008,0.688-1.06,1.616,0.02,2.669c4.933,4.807,9.769,9.719,14.643,14.588
			c2.619,2.616,4.813,2.608,7.465-0.039c4.731-4.723,9.454-9.451,14.178-14.177c1.612-1.611,1.5-2.788-0.536-3.881
			c-0.779-0.417-1.762-0.624-2.659-0.634C51.353,24.695,46.484,24.725,41.613,24.725z M60.289,56.281
			c-4.201-4.219-7.991-8.023-11.841-11.892c-2.005,1.755-3.588,4.288-6.901,4.313c-3.366,0.026-5.044-2.48-7.017-4.245
			c-3.898,3.857-7.711,7.633-11.573,11.454c0.819,1.121,2.001,1.64,3.417,1.64c10.047,0.009,20.096,0.046,30.145-0.05
			C57.737,57.49,58.947,56.732,60.289,56.281z M31.858,42.339c-3.356-3.354-6.654-6.65-9.787-9.783c0,6.295,0,12.891,0,19.543
			C25.458,48.722,28.746,45.447,31.858,42.339z M61.005,32.26c-3.368,3.329-6.7,6.619-9.718,9.603c3.2,3.293,6.476,6.665,9.718,10
			C61.005,45.39,61.005,38.819,61.005,32.26z"/>
		<path fill-rule="evenodd" clip-rule="evenodd" fill="#28268D" d="M41.613,24.725c4.871,0,9.739-0.03,14.606,0.029
			c0.897,0.011,1.88,0.218,2.659,0.634c2.035,1.093,2.147,2.27,0.536,3.881c-4.725,4.726-9.447,9.454-14.178,14.177
			c-2.652,2.647-4.846,2.655-7.465,0.039c-4.875-4.869-9.71-9.781-14.643-14.588c-1.079-1.054-1.027-1.981-0.02-2.669
			c1.05-0.711,2.366-1.397,3.588-1.435C31.662,24.63,36.64,24.725,41.613,24.725z"/>
		<path fill-rule="evenodd" clip-rule="evenodd" fill="#28268D" d="M60.289,56.281c-1.342,0.452-2.552,1.209-3.771,1.22
			c-10.049,0.096-20.098,0.059-30.145,0.05c-1.416,0-2.598-0.52-3.417-1.64c3.862-3.82,7.675-7.596,11.573-11.454
			c1.973,1.765,3.651,4.271,7.017,4.245c3.313-0.025,4.896-2.558,6.901-4.313C52.298,48.258,56.087,52.062,60.289,56.281z"/>
		<path fill-rule="evenodd" clip-rule="evenodd" fill="#28268D" d="M31.858,42.339c-3.113,3.108-6.4,6.382-9.787,9.76
			c0-6.652,0-13.248,0-19.543C25.204,35.689,28.502,38.986,31.858,42.339z"/>
		<path fill-rule="evenodd" clip-rule="evenodd" fill="#28268D" d="M61.005,32.26c0,6.559,0,13.129,0,19.603
			c-3.243-3.336-6.519-6.708-9.718-10C54.305,38.879,57.637,35.589,61.005,32.26z"/>
	</g>
</g>
</svg>
