<?xml version="1.0" encoding="utf-8"?>
<!-- Generator: Adobe Illustrator 16.2.1, SVG Export Plug-In . SVG Version: 6.00 Build 0)  -->
<!DOCTYPE svg PUBLIC "-//W3C//DTD SVG 1.1//EN" "http://www.w3.org/Graphics/SVG/1.1/DTD/svg11.dtd">
<svg version="1.1" id="Layer_1" xmlns="http://www.w3.org/2000/svg" xmlns:xlink="http://www.w3.org/1999/xlink" x="0px" y="0px"
	 width="5448.79px" height="2240px" viewBox="0 0 5448.79 2240" enable-background="new 0 0 5448.79 2240" xml:space="preserve">
<rect display="none" fill="#7E7570" width="5448.786" height="2240"/>
<g>
	<path fill="#070606" d="M2194.333,1087.816c0,508.968-412.6,921.568-921.568,921.568s-921.568-412.601-921.568-921.568
		s412.6-921.568,921.568-921.568S2194.333,578.849,2194.333,1087.816"/>
	<path fill="#28268D" d="M529.557,1267.022c-71.117-260.644-16.392-522.917,126.508-718.596
		C524.531,706.051,453.517,910.099,473.28,1125.865c20.012,218.501,129.378,408.28,290.665,539.591
		C655.568,1560.193,572.487,1424.362,529.557,1267.022"/>
	<path fill="#28268D" d="M2102.213,936.8c42.394,219.093,6.229,433.6-87.672,609.671
		c95.809-140.663,150.129-311.538,145.794-494.662c-9.047-382.239-270.798-699.113-621.758-794.693
		C1814.769,354.884,2038.607,608.07,2102.213,936.8"/>
	<path fill="#FF0000" d="M1994,807.671c37.579,91.686,59.512,185.595,67.074,278.387
		c-5.625-410.938-305.585-750.751-698.612-818.202C1631.547,323.422,1875.69,519.025,1994,807.671"/>
	<path fill="#FF0000" d="M639.129,1634.703C387.191,1334.232,362.013,918,524.513,651
		c-145.5,193.601-181.572,479.945-75.796,756.273c119.235,311.485,395.131,496.424,660.962,541.061
		C946.513,1919,775.2,1796.986,639.129,1634.703"/>
	<path fill="#FFFFFF" d="M1143.513,386.625l-180.967,58.92l-374.849,857.031l177.049-39.526l66.81-160.449l240.938-55.764
		l23.147,147.825l202.009-41.559L1143.513,386.625z M898.892,937.416l116.26-289.862l35.773,253.037L898.892,937.416z"/>
	<path fill="#FFFFFF" d="M1268.19,844.601l594.19-149.701l-48.923,734.651c0,0-2.368,241.464-224.104,291.176
		c-221.736,49.714-410.331,49.714-410.331,49.714l-46.557-306.17l192.54-32.353c0,0,9.732,3.944,21.042,56.025
		c11.311,52.08,19.203,60.76,21.043,61.55c1.841,0.789,5.845,1.315,10.025,1.315c4.179,0,131.75-21.043,131.75-21.043
		s47.872-13.415,59.182-72.86c11.311-59.445,48.398-537.375,48.398-537.375l-314.85,73.912L1268.19,844.601z"/>
</g>
<path fill="#FBFCFB" d="M2418.216,1017.681h-130.649l228.571-468.997h133.999l126.527,468.997h-130.649l-21.039-83.749h-167.499
	L2418.216,1017.681z M2497.102,846.832h107.199l-36.47-157.449L2497.102,846.832z"/>
<polygon fill="#FBFCFB" points="3232.256,1017.681 3104.957,1017.681 2974.771,736.283 2944.157,1017.681 2823.56,1017.681 
	2874.58,548.683 3001.879,548.683 3132.066,830.082 3162.68,548.683 3283.277,548.683 "/>
<g>
	<path fill="#FBFCFB" d="M3584.775,548.684c50.468,0,87.352,13.065,110.64,39.195c23.287,26.13,32.185,64.435,26.694,114.904
		l-17.494,160.799c-5.491,50.479-22.721,88.775-51.694,114.905c-28.973,26.129-68.698,39.194-119.168,39.194h-261.299
		l51.022-468.997H3584.775z M3601.51,702.783c4.372-40.2-13.539-60.3-53.739-60.3h-113.9l-30.613,281.399h113.899
		c40.201,0,62.486-20.099,66.859-60.3L3601.51,702.783z"/>
	<path fill="#FBFCFB" d="M3779.063,548.684h281.399c46.898,0,79.799,10.615,98.713,31.825c18.9,21.219,25.81,55.274,20.707,102.174
		l-6.56,60.3c-4.034,37.08-13.312,65.89-27.827,86.429c-14.524,20.55-35.543,34.17-63.07,40.871l67.714,147.399H4019.49
		l-61.742-140.7h-93.801l-15.307,140.7h-120.598L3779.063,548.684z M4059.283,682.683c2.916-26.8-9.024-40.2-35.824-40.2h-134
		l-15.308,140.7h134c26.8,0,41.657-13.4,44.572-40.2L4059.283,682.683z"/>
	<polygon fill="#FBFCFB" points="4568.879,1017.681 4197.031,1017.681 4248.053,548.683 4619.9,548.683 4609.696,642.483 
		4358.447,642.483 4348.608,732.932 4546.258,732.932 4536.053,826.732 4338.402,826.732 4327.834,923.882 4579.083,923.882 	"/>
	<path fill="#FBFCFB" d="M4757.961,696.083c-2.916,26.8,9.025,40.2,35.825,40.2h120.601c43.769,0,74.828,10.113,93.181,30.318
		c18.34,20.214,25.179,51.851,20.495,94.909l-3.586,32.955c-4.686,43.068-18.407,74.705-41.145,94.91
		c-22.75,20.214-56.008,30.317-99.777,30.317h-42.545h-45.561h-46.229h-43.885c-32.611,0-64.675-2.9-96.203-8.711l9.33-85.759
		h95.141h81.738h71.689c10.271,0,18.734-2.837,25.382-8.521c6.649-5.685,10.499-13.369,11.554-23.063l6.186-56.855h-154.098
		c-46.901,0-79.812-10.605-98.713-31.825c-18.912-21.21-25.812-55.275-20.711-102.175l2.187-20.1
		c5.103-46.9,19.414-80.954,42.942-102.174c23.516-21.21,58.735-31.825,105.637-31.825h235.168l-10.204,93.799h-208.369
		c-26.8,0-41.658,13.4-44.574,40.2L4757.961,696.083z"/>
	<path fill="#FBFCFB" d="M2254.792,1441.081h39.711h34.503h29.946c9.979,0,18.219-2.909,24.713-8.748
		c6.493-5.828,10.28-13.711,11.361-23.648l26.787-246.229h-84.629l9.915-91.14h201.808l-36.671,337.084
		c-4.607,42.354-17.982,73.48-40.101,93.356c-22.13,19.876-54.459,29.814-96.988,29.814h-45.244h-41.989
		c-14.759,0-28.928-1.414-42.506-4.232L2254.792,1441.081z"/>
	<polygon fill="#FBFCFB" points="2779.256,1527.013 2544.897,1527.013 2554.812,1435.873 2613.401,1435.873 2643.146,1162.455 
		2584.558,1162.455 2594.472,1071.314 2828.83,1071.314 2818.915,1162.455 2760.325,1162.455 2730.58,1435.873 2789.17,1435.873 	
		"/>
	<polygon fill="#FBFCFB" points="3243.043,1273.124 3134.197,1435.873 3043.059,1435.873 2969.624,1273.124 2942.004,1527.013 
		2824.823,1527.013 2874.398,1071.315 2998.088,1071.315 3102.083,1312.184 3258.487,1071.315 3382.178,1071.315 3332.603,1527.013 
		3215.422,1527.013 	"/>
	<polygon fill="#FBFCFB" points="3732.961,1527.013 3371.656,1527.013 3421.231,1071.314 3782.535,1071.314 3772.62,1162.455 
		3528.496,1162.455 3518.937,1250.339 3710.98,1250.339 3701.064,1341.479 3509.021,1341.479 3498.751,1435.873 3742.875,1435.873 	
		"/>
	<polygon fill="#FBFCFB" points="4169.125,1527.013 4045.436,1527.013 3918.94,1253.594 3889.195,1527.013 3772.017,1527.013 
		3821.592,1071.314 3945.28,1071.314 4071.774,1344.733 4101.521,1071.314 4218.699,1071.314 	"/>
	<polygon fill="#FBFCFB" points="4569.486,1527.013 4208.182,1527.013 4257.757,1071.314 4619.061,1071.314 4609.146,1162.455 
		4365.021,1162.455 4355.461,1250.339 4547.506,1250.339 4537.59,1341.479 4345.547,1341.479 4335.276,1435.873 4579.4,1435.873 	
		"/>
	<polygon fill="#FBFCFB" points="5019.27,1162.455 4761.675,1435.873 4989.523,1435.873 4979.609,1527.013 4608.54,1527.013 
		4618.456,1435.873 4876.05,1162.455 4648.201,1162.455 4658.115,1071.314 5029.184,1071.314 	"/>
</g>
</svg>
